name processed_emg_signals						
nRows=51						
nColumns=7						
 						
endheader						
time	RGLTMED	RRF	RADDLONG	RST	RTA	RGM
1.92	0.02476854	0.020311847	0.04138006	0.048867986	0.379670446	0.045990311
1.921	0.02477923	0.019759545	0.041308833	0.048128144	0.377919904	0.045739317
1.922	0.024790693	0.019214352	0.041237377	0.047365236	0.376171275	0.045491203
1.923	0.024802934	0.018677234	0.041165385	0.046579311	0.374424068	0.045246189
1.924	0.024815964	0.018149175	0.04109256	0.045770455	0.372677732	0.045004486
1.925	0.024829796	0.017631172	0.041018621	0.044938796	0.37093165	0.044766292
1.926	0.024844448	0.01712424	0.040943304	0.044084504	0.369185147	0.044531796
1.927	0.024859937	0.016629408	0.040866355	0.043207792	0.367437491	0.044301173
1.928	0.024876288	0.016147719	0.040787541	0.042308919	0.365687896	0.044074591
1.929	0.024893527	0.015680229	0.040706641	0.041388189	0.363935529	0.043852205
1.93	0.024911681	0.015228005	0.040623454	0.040445954	0.362179507	0.043634159
1.931	0.024930783	0.014792126	0.040537794	0.039482616	0.360418906	0.043420588
1.932	0.024950868	0.014373682	0.040449493	0.038498624	0.358652761	0.043211616
1.933	0.024971973	0.013973769	0.040358401	0.03749448	0.356880072	0.043007357
1.934	0.024994138	0.013593493	0.040264388	0.036470736	0.355099806	0.042807916
1.935	0.025017407	0.013233968	0.040167339	0.035428	0.353310901	0.042613386
1.936	0.025041824	0.01289631	0.040067162	0.034366931	0.35151227	0.042423853
1.937	0.025067437	0.012581644	0.039963781	0.033288243	0.349702802	0.042239392
1.938	0.025094297	0.012291094	0.03985714	0.032192706	0.347881372	0.042060071
1.939	0.025122454	0.012025789	0.039747204	0.031081147	0.346046838	0.041885948
1.94	0.025151964	0.011786858	0.039633956	0.029954449	0.344198048	0.041717072
1.941	0.025182882	0.011575428	0.039517401	0.028813552	0.342333842	0.041553486
1.942	0.025215265	0.011392625	0.039397562	0.027659455	0.34045306	0.041395223
1.943	0.025249173	0.011239573	0.039274482	0.026493214	0.338554539	0.041242309
1.944	0.025284665	0.01111739	0.039148225	0.025315946	0.336637122	0.041094764
1.945	0.025321802	0.011027188	0.039018876	0.024128824	0.334699659	0.040952601
1.946	0.025360648	0.01097007	0.038886537	0.022933082	0.332741013	0.040815825
1.947	0.025401265	0.010947134	0.038751332	0.021730014	0.330760058	0.040684436
1.948	0.025443717	0.010959463	0.038613405	0.020520971	0.328755692	0.040558429
1.949	0.025488067	0.01100813	0.038472919	0.019307363	0.32672683	0.040437792
1.95	0.02553438	0.011094194	0.038330056	0.018090661	0.324672414	0.040322508
1.951	0.02558272	0.011218699	0.038185018	0.016872394	0.322591416	0.040212557
1.952	0.02563315	0.011382672	0.038038025	0.015654146	0.320482838	0.040107912
1.953	0.025685733	0.011587121	0.037889317	0.014437563	0.318345717	0.040008544
1.954	0.025740533	0.011833035	0.03773915	0.013224345	0.31617913	0.039914419
1.955	0.02579761	0.012121382	0.037587801	0.012016248	0.313982193	0.039825501
1.956	0.025857026	0.012453104	0.037435562	0.010815086	0.311754066	0.039741749
1.957	0.02591884	0.01282912	0.037282743	0.009622725	0.309493958	0.039663121
1.958	0.025983109	0.013250322	0.037129671	0.008441085	0.307201124	0.039589572
1.959	0.026049889	0.013717574	0.036976687	0.007272138	0.304874873	0.039521055
1.96	0.026119234	0.014231711	0.036824152	0.006117908	0.302514568	0.03945752
1.961	0.026191197	0.014793534	0.036672436	0.004980467	0.300119628	0.039398918
1.962	0.026265825	0.015403813	0.036521929	0.003861937	0.297689533	0.039345196
1.963	0.026343166	0.016063283	0.036373031	0.002764486	0.295223822	0.039296303
1.964	0.026423263	0.01677264	0.036226157	0.001690326	0.292722096	0.039252184
1.965	0.026506157	0.017532546	0.036081733	0.000641712	0.290184024	0.039212786
1.966	0.026591886	0.018343621	0.035940199	0.000379058	0.287609339	0.039178055
1.967	0.026680483	0.019206442	0.035802004	0.001369648	0.284997843	0.039147938
1.968	0.026771978	0.020121547	0.035667608	0.002327685	0.282349407	0.03912238
1.969	0.026866399	0.021089428	0.035537481	0.003250761	0.279663974	0.039101329
1.97	0.026963766	0.022110529	0.035412101	0.004136434	0.276941559	0.039084731
